<?xml version="1.0" encoding="UTF-8"?>
<svg width="284px" height="325px" viewBox="0 0 284 325" version="1.1" xmlns="http://www.w3.org/2000/svg" xmlns:xlink="http://www.w3.org/1999/xlink">
    <title>Group 2</title>
    <g id="logo" stroke="none" stroke-width="1" fill="none" fill-rule="evenodd">
        <g id="Artboard" transform="translate(-911.000000, -362.000000)">
            <g id="Group-2" transform="translate(911.000000, 362.000000)">
                <rect id="Rectangle" fill="#573318" x="41" y="0" width="201" height="248" rx="5"></rect>
                <rect id="Rectangle" fill="#71360B" x="31" y="20" width="227" height="248" rx="5"></rect>
                <rect id="Rectangle" fill="#9D4C10" x="15" y="46" width="258" height="248" rx="5"></rect>
                <rect id="Rectangle" fill="#E15B17" x="0" y="77" width="284" height="248" rx="5"></rect>
                <g id="Bkr" transform="translate(70.000000, 144.000000)" fill="#FFFFFF">
                    <path d="M0,93.6476 L27.5308057,93.6476 C45.7606635,93.6476 54.9375987,84.3776 54.9375987,70.5344 C54.9375987,57.1856 46.7527646,51.6236 36.7077409,50.264 L36.7077409,49.7696 C46.3807267,47.2976 51.093207,40.7468 51.093207,31.3532 C51.093207,18.0044 43.528436,10.712 24.8025276,10.712 L0,10.712 L0,93.6476 Z M7.93680885,86.9732 L7.93680885,53.8484 L25.6706161,53.8484 C38.8159558,53.8484 46.628752,58.4216 46.628752,69.9164 C46.628752,81.4112 39.8080569,86.9732 27.1587678,86.9732 L7.93680885,86.9732 Z M7.93680885,47.4212 L7.93680885,17.51 L24.1824645,17.51 C36.8317536,17.51 42.7843602,21.3416 42.7843602,32.2184 C42.7843602,43.466 34.7235387,47.4212 23.8104265,47.4212 L7.93680885,47.4212 Z" id="B" fill-rule="nonzero"></path>
                    <path d="M70.0671406,93.6476 L77.8799368,93.6476 L77.8799368,5.15 L70.0671406,5.15 L70.0671406,93.6476 Z M106.402844,93.6476 L115.455766,93.6476 L89.0410742,61.5116 L113.595577,32.7128 L105.038705,32.7128 L80.1121643,62.006 L106.402844,93.6476 Z" id="k" fill-rule="nonzero"></path>
                    <path d="M127.733017,93.6476 L135.545814,93.6476 L135.545814,45.1964 C139.886256,41.612 146.2109,39.0164 152.659558,39.0164 C153.775671,39.0164 155.511848,39.14 157,39.3872 L157,32.2184 C156.255924,31.9712 154.64376,31.8476 153.279621,31.8476 C146.086888,31.8476 139.266193,35.6792 135.669826,39.6344 L135.173776,39.6344 L135.173776,32.5892 L127.733017,32.5892 L127.733017,93.6476 Z" id="r" fill-rule="nonzero"></path>
                    <polygon id="Path" points="13.2280147 15.45 21.040811 15.45 21.040811 0 13.2280147 0"></polygon>
                    <polygon id="Path" points="28.7295945 15.45 36.5423907 15.45 36.5423907 0 28.7295945 0"></polygon>
                    <polygon id="Path" points="13.2280147 103 21.040811 103 21.040811 87.55 13.2280147 87.55"></polygon>
                    <polygon id="Path" points="28.7295945 103 36.5423907 103 36.5423907 87.55 28.7295945 87.55"></polygon>
                </g>
            </g>
        </g>
    </g>
</svg>